<svg xmlns="http://www.w3.org/2000/svg" viewBox="0 0 800 200"><defs><style>.cls-1{fill:#303030;}.cls-2{fill:#fff;}.cls-3{fill:#010101;}.cls-4{fill:#a99ea1;}.cls-5{fill:#824b9d;}.cls-6{fill:#27aae1;}.cls-7{fill:#ed4a48;}</style></defs><title>fpo-sitebanner-800x200</title><g id="Layer_1" data-name="Layer 1"><rect class="cls-1" width="800" height="200"/></g><g id="Layer_4" data-name="Layer 4"><ellipse class="cls-2" cx="107.69" cy="99.15" rx="90.71" ry="90.47"/></g><g id="Layer_3" data-name="Layer 3"><path class="cls-3" d="M107.16,3.1a96.72,96.72,0,1,0,97,96.72A96.85,96.85,0,0,0,107.16,3.1ZM21.45,99.83A85.92,85.92,0,1,1,181,144.09c-3.33-4.34-8-8.12-8.81-12.47-14.07,4.7-6.1,16.16-12.57,19.75-5.74-21.18-20.82-28-31.6-28.72,1.28-9.91,10.05-21.18-2.29-40.21-5.77-7.24,13.13-31.23.79-51.06-2.55-4.1-5.81-7.34-10.35-8.86-19.08-6.39-7.92,40.73-14.52,50.84a3.2,3.2,0,0,1-2.36,1.33c-1.84.43-3.15.26-4.08-1.12-6.51-9.72,5.7-57.16-13.51-48-4.89,2.33-8.55,5.48-10.82,9.95-10.64,21,2.89,34,.92,67.41-.32,25.91-8.64,45.45,5.59,77.48A86,86,0,0,1,21.45,99.83Z"/><path class="cls-2" d="M117.8,127.06c-2.69,2.93-2.28,7-2.81,9.17-.84,3.32-1,3.55-2.33,5-1.05.37-1.42-2.17-1.32-4.52s-.47-2.49-1.95-2.07a18.59,18.59,0,0,1-6.26.93c-.07-.91-.26-3.32-.33-5.59a9.79,9.79,0,0,0,2.93-1.61c1.2-.93,1.33-.72,1.33-2.6a10.55,10.55,0,0,0-1.4-4.92c-.22-.37-.66-.35-.7,0a7.1,7.1,0,0,1-2,3.58,13.23,13.23,0,0,0,.44-3.4c-.09-1.6-.21-3.23-.37-4.34-.84-5.82-2.49-17.1-2.2-19.25a38.66,38.66,0,0,0,.64-4.23c0-1.09-.45-3.93-.45-3.93-.42.54-.14,3.13-.09,3.31.28,1.21-.19,1.94-.73,3.95s1.74,16.88,1.76,19.5c0,1.21,0,3.13-.12,5,0,1.08-.09,2.13-.13,3a6.79,6.79,0,0,1-1.52-3.13c0-.41-.53-.45-.76,0a10.56,10.56,0,0,0-1.39,4.9,2.11,2.11,0,0,0,1.06,2.13,11.45,11.45,0,0,0,2.71,2c.09,2.31.2,4.79.24,5.7a15.46,15.46,0,0,1-5.36-.61c-2.93-1.08-2.75-.36-3,1.91s-.91,4.57-1.74,4.34a7.91,7.91,0,0,1-1.32-3.41c-.37-2.69.28-5.69-1.95-9.65-8-4.81-15.35-13.66-15.35-23.86a24.65,24.65,0,0,1,.47-4.58c0,.16-.08,3,.75,3.11s1-2,2.36-2.27c-1.28,3.07-.33,6.38.53,8.22a22.81,22.81,0,0,0,1.1,3c3.13,7,9.07,11.14,13.28,9.26S96.89,112,93.76,105s-9.07-11.14-13.28-9.26a5.42,5.42,0,0,0-2.16,1.78,5.77,5.77,0,0,0-3.25,3.5,5,5,0,0,1-.87-3.06,35.73,35.73,0,0,1,2.34-6.53c.6-1.26,5.18,0,6-1.13s-.94-3.84-.09-4.79a26.69,26.69,0,0,1,37.22-2.64c.75.64-1.22,3.73-.54,4.45,1.09,1.14,5.35,0,6.23,1.28a33.65,33.65,0,0,1,4.17,8.14,6.06,6.06,0,0,0-3.83-3.27s.38-.69,0-.9a15.44,15.44,0,0,0-5.63.26c-3.78.54-7.84,4.68-9.92,10.53-2.56,7.22-1.12,14.33,3.22,15.86s9.93-3.07,12.5-10.29c1.9-5.36,1.59-10.65-.46-13.66,1.39-.52,3.4,1.16,4.45,2.38a21.78,21.78,0,0,1,.86,6C130.63,113.14,124.87,122.05,117.8,127.06Z"/><path class="cls-4" d="M270.43,90.33l1.66-2.3c3.89,3,8.42,5,15.7,5,7.06,0,10.66-3.17,10.66-6.84,0-3.1-1.22-5.62-12.17-7.85-8.79-1.73-13.83-4.61-13.83-9.65s4.25-9.22,13.54-9.22a24.16,24.16,0,0,1,13.25,4.25l-1.73,2.3a19.4,19.4,0,0,0-11.74-3.82c-7.56,0-10,3-10,6.26,0,3.67,3.6,5.47,11.38,7.13,12,2.52,14.62,5.26,14.62,10.44s-5.18,9.72-14.26,9.72A29.69,29.69,0,0,1,270.43,90.33Z"/><path class="cls-4" d="M316.58,43.17h3.24v38h.29l22.18-20.81h4L332.06,73.7l16.49,21.24h-3.67l-15-19.23-10.08,9.43v9.79h-3.24Z"/><path class="cls-4" d="M357.19,81.9V60.38h3.17v21.1c0,7.71,2.88,11.45,9.72,11.45,4.9,0,8.5-2.45,13.25-7.85V60.38h3.17V94.94h-2.66l-.36-6.7h-.29c-3.74,4.39-8.06,7.56-13.61,7.56C361.22,95.8,357.19,91.27,357.19,81.9Z"/><path class="cls-4" d="M413.63,84.5V45.9H400.75V43.17H416.8V84.93c0,5.47,2.66,8.06,7.56,8.06a16.3,16.3,0,0,0,7.13-1.8l1,2.45a17.61,17.61,0,0,1-8.57,2.16C417.38,95.8,413.63,92.35,413.63,84.5Z"/><path class="cls-4" d="M456.83,84.5V45.9H443.95V43.17H460V84.93c0,5.47,2.66,8.06,7.56,8.06a16.3,16.3,0,0,0,7.13-1.8l1,2.45a17.61,17.61,0,0,1-8.57,2.16C460.58,95.8,456.83,92.35,456.83,84.5Z"/><path class="cls-4" d="M491.25,91h-.14l-.36,3.89h-2.66V43.17h3.24v15l-.22,7.42h.14c3.53-3.6,8.5-6,13-6,9.79,0,14.69,6.91,14.69,17.64,0,11.74-7.56,18.65-16.06,18.65C499.31,95.8,494.71,93.93,491.25,91Zm24.27-13.9c0-8.5-3.31-14.83-11.81-14.83-3.6,0-8.06,2-12.38,6.34V87.88c4,3.67,8.5,5.11,11.38,5.11C510.11,93,515.51,86.51,515.51,77.15Z"/><path class="cls-4" d="M528.54,110l.86-2.81a11.42,11.42,0,0,0,3.38.58c5.33,0,8.71-3.89,10.8-9.14l1.22-3L528,60.38h3.31l10.08,21.75c1.37,2.88,3.1,6.62,4.75,9.72h.29c1.37-3.1,2.81-6.77,4-9.72l9-21.75h3.1L546.33,99.26c-2,5.83-6.34,11.45-13.61,11.45A12.05,12.05,0,0,1,528.54,110Z"/><path class="cls-4" d="M583.12,82V63.11H572.68V60.66l10.51-.29.43-11.45h2.67V60.38h18.43v2.74H586.29V82.26c0,6.7,1.94,10.73,9.65,10.73a23.12,23.12,0,0,0,9.22-1.8l.86,2.45A26,26,0,0,1,595.5,95.8C586,95.8,583.12,90.26,583.12,82Z"/><path class="cls-4" d="M615.66,77.66c0-11.23,8.28-18.15,17.28-18.15,9.5,0,15.48,6,15.48,16a16.47,16.47,0,0,1-.14,2.66H618.9c.29,9.65,7.13,14.91,15.19,14.91a19.72,19.72,0,0,0,11.59-3.74L647,91.7a21.93,21.93,0,0,1-13.11,4.1C623.87,95.8,615.66,89,615.66,77.66ZM619,75.42h26.5C645,66.5,640.07,62.25,633,62.25,626.39,62.25,620,67,619,75.42Z"/><path class="cls-4" d="M659.22,90.33l1.66-2.3c3.89,3,8.42,5,15.7,5,7.06,0,10.66-3.17,10.66-6.84,0-3.1-1.22-5.62-12.17-7.85-8.79-1.73-13.83-4.61-13.83-9.65s4.25-9.22,13.54-9.22A24.16,24.16,0,0,1,688,63.76l-1.73,2.3a19.4,19.4,0,0,0-11.74-3.82c-7.56,0-10,3-10,6.26,0,3.67,3.6,5.47,11.38,7.13,12,2.52,14.62,5.26,14.62,10.44s-5.18,9.72-14.26,9.72A29.7,29.7,0,0,1,659.22,90.33Z"/><path class="cls-5" d="M366.39,134.64h-1.95v-.87l1.95-.07v-.57a2.48,2.48,0,0,1,2.75-2.76,5,5,0,0,1,2,.39l-.27.87a3.49,3.49,0,0,0-1.58-.32,1.55,1.55,0,0,0-1.72,1.78v.62h2.86v.94h-2.86v5.87h-1.13Z"/><path class="cls-5" d="M372.48,137.93V133.7h1.16v4.08c0,1.29.43,1.91,1.57,1.91a2.72,2.72,0,0,0,2.12-1.26V133.7h1.15v6.81h-.94l-.1-1.19h-.06a3.32,3.32,0,0,1-2.54,1.36C373.22,140.68,372.48,139.73,372.48,137.93Z"/><path class="cls-5" d="M381.1,133.7h1l.1,1.16h.06a3.5,3.5,0,0,1,2.56-1.33c1.61,0,2.35,1,2.35,2.75v4.23H386v-4.08c0-1.29-.45-1.91-1.57-1.91-.81,0-1.36.41-2.16,1.23v4.75H381.1Z"/><path class="cls-5" d="M389.32,137.12a3.53,3.53,0,0,1,3.8-3.59,3.46,3.46,0,0,1,2.48,1l-.58.74a2.76,2.76,0,0,0-1.86-.78,2.51,2.51,0,0,0-2.65,2.63,2.47,2.47,0,0,0,2.62,2.61,3.24,3.24,0,0,0,2.1-.85l.52.74a4.05,4.05,0,0,1-2.7,1.06A3.43,3.43,0,0,1,389.32,137.12Z"/><path class="cls-5" d="M399.49,137.86v-3.22h-1.92v-.87l2-.07.15-2.19h1v2.19H404v.94h-3.35v3.24c0,1.22.41,1.86,1.72,1.86a4.51,4.51,0,0,0,1.64-.31l.25.84a5.93,5.93,0,0,1-2.13.41C400.13,140.68,399.49,139.54,399.49,137.86Z"/><path class="cls-5" d="M409.43,134.64h-3.17v-.94h4.31v6.81h-1.15Zm-.48-3.26a.92.92,0,1,1,.92.9A.88.88,0,0,1,408.95,131.38Z"/><path class="cls-5" d="M414.24,137.12a3.37,3.37,0,1,1,3.36,3.56A3.34,3.34,0,0,1,414.24,137.12Zm5.53,0c0-1.57-.87-2.63-2.17-2.63s-2.17,1.06-2.17,2.63.87,2.61,2.17,2.61S419.77,138.68,419.77,137.12Z"/><path class="cls-5" d="M423.1,133.7h1l.1,1.16h.06a3.5,3.5,0,0,1,2.56-1.33c1.61,0,2.35,1,2.35,2.75v4.23H428v-4.08c0-1.29-.45-1.91-1.57-1.91-.81,0-1.36.41-2.16,1.23v4.75H423.1Z"/><path class="cls-6" d="M439.59,139.61l.53-.76a4.83,4.83,0,0,0,3,.92c1.15,0,1.72-.49,1.72-1.06s-.28-.88-2.13-1.26-2.66-1-2.66-2,1-1.93,2.83-1.93a5.11,5.11,0,0,1,2.75.87l-.56.74a4,4,0,0,0-2.28-.71c-1.16,0-1.57.46-1.57,1s.59.84,2,1.13c2.27.49,2.82,1.06,2.82,2.1s-1.08,2-3,2A6,6,0,0,1,439.59,139.61Z"/><path class="cls-6" d="M448.48,130.54h1.15v6.75h.06l3.67-3.59h1.32L452,136.38l3.08,4.13h-1.29l-2.51-3.43-1.61,1.58v1.85h-1.15Z"/><path class="cls-6" d="M456.48,137.93V133.7h1.16v4.08c0,1.29.43,1.91,1.57,1.91a2.72,2.72,0,0,0,2.11-1.26V133.7h1.15v6.81h-.94l-.1-1.19h-.06a3.32,3.32,0,0,1-2.54,1.36C457.22,140.68,456.48,139.73,456.48,137.93Z"/><path class="cls-6" d="M467.26,138.23v-6.75h-2.33v-.94h3.47v7.77a1.23,1.23,0,0,0,1.34,1.42,3.07,3.07,0,0,0,1.27-.31l.29.85a4.13,4.13,0,0,1-1.82.41C468.06,140.68,467.26,139.84,467.26,138.23Z"/><path class="cls-6" d="M475.66,138.23v-6.75h-2.33v-.94h3.47v7.77a1.23,1.23,0,0,0,1.34,1.42,3.07,3.07,0,0,0,1.27-.31l.29.85a4.13,4.13,0,0,1-1.82.41C476.46,140.68,475.66,139.84,475.66,138.23Z"/><path class="cls-6" d="M483,139.75h0l-.1.76h-.92v-10H483v2.72l0,1.32h0a3.35,3.35,0,0,1,2.28-1c1.83,0,2.83,1.36,2.83,3.46,0,2.33-1.46,3.68-3.08,3.68A3.42,3.42,0,0,1,483,139.75Zm4-2.75c0-1.5-.56-2.51-1.92-2.51a3,3,0,0,0-2,1v3.39a2.94,2.94,0,0,0,1.85.8C486.09,139.71,487,138.69,487,137Z"/><path class="cls-6" d="M489.94,143.3l.24-.91a2.19,2.19,0,0,0,.62.1,2,2,0,0,0,1.86-1.46l.21-.5-3.18-6.82h1.16l1.67,3.77c.27.6.56,1.32.84,2h.06c.24-.64.5-1.36.73-2l1.49-3.77h1.09l-3,7.37c-.5,1.34-1.34,2.37-2.89,2.37A2.87,2.87,0,0,1,489.94,143.3Z"/><path class="cls-6" d="M500.28,137.86v-3.22h-1.92v-.87l2-.07.15-2.19h1v2.19h3.35v.94h-3.35v3.24c0,1.22.41,1.86,1.72,1.86a4.51,4.51,0,0,0,1.64-.31l.25.84a5.93,5.93,0,0,1-2.13.41C500.93,140.68,500.28,139.54,500.28,137.86Z"/><path class="cls-6" d="M506.75,137.09a3.42,3.42,0,0,1,3.47-3.56,2.93,2.93,0,0,1,3.11,3.19,4.81,4.81,0,0,1-.06.7h-5.37a2.44,2.44,0,0,0,2.65,2.33,3.71,3.71,0,0,0,2.07-.64l.42.76a4.66,4.66,0,0,1-2.63.81A3.45,3.45,0,0,1,506.75,137.09Zm1.19-.56h4.34a2,2,0,0,0-2-2.09A2.31,2.31,0,0,0,507.94,136.53Z"/><path class="cls-6" d="M515.19,139.61l.53-.76a4.83,4.83,0,0,0,3,.92c1.15,0,1.72-.49,1.72-1.06s-.28-.88-2.13-1.26-2.66-1-2.66-2,1-1.93,2.83-1.93a5.11,5.11,0,0,1,2.75.87l-.56.74a4,4,0,0,0-2.28-.71c-1.16,0-1.57.46-1.57,1s.59.84,2,1.13c2.27.49,2.82,1.06,2.82,2.1s-1.08,2-3,2A6,6,0,0,1,515.19,139.61Z"/><path class="cls-4" d="M525.51,136.62a7.81,7.81,0,0,1,3.15-6.36l.63.59a7.44,7.44,0,0,0,0,11.54l-.63.59A7.81,7.81,0,0,1,525.51,136.62Z"/><path class="cls-4" d="M532.12,137.12a3.53,3.53,0,0,1,3.8-3.59,3.46,3.46,0,0,1,2.48,1l-.57.74a2.76,2.76,0,0,0-1.86-.78,2.51,2.51,0,0,0-2.65,2.63,2.47,2.47,0,0,0,2.62,2.61,3.24,3.24,0,0,0,2.1-.85l.52.74a4.05,4.05,0,0,1-2.7,1.06A3.43,3.43,0,0,1,532.12,137.12Z"/><path class="cls-4" d="M540.24,137.12a3.37,3.37,0,1,1,3.36,3.56A3.34,3.34,0,0,1,540.24,137.12Zm5.53,0c0-1.57-.87-2.63-2.17-2.63s-2.17,1.06-2.17,2.63.87,2.61,2.17,2.61S545.77,138.68,545.77,137.12Z"/><path class="cls-4" d="M548.61,133.7h.92l.1.9h0a1.69,1.69,0,0,1,1.55-1.06c.67,0,1.09.39,1.29,1.18.39-.73.81-1.18,1.6-1.18,1,0,1.51.74,1.51,2.1v4.88h-1.15v-4.79c0-.78-.22-1.19-.73-1.19s-.73.35-1.09,1.05v4.93h-1.06v-4.79c0-.78-.2-1.19-.7-1.19s-.79.35-1.12,1.05v4.93h-1.15Z"/><path class="cls-4" d="M560.62,134.64h-3.17v-.94h4.31v6.81h-1.15Zm-.48-3.26a.92.92,0,1,1,.92.9A.88.88,0,0,1,560.15,131.38Z"/><path class="cls-4" d="M565.72,137.12a3.53,3.53,0,0,1,3.8-3.59,3.46,3.46,0,0,1,2.48,1l-.57.74a2.76,2.76,0,0,0-1.86-.78,2.51,2.51,0,0,0-2.65,2.63,2.47,2.47,0,0,0,2.62,2.61,3.24,3.24,0,0,0,2.1-.85l.52.74a4.05,4.05,0,0,1-2.7,1.06A3.43,3.43,0,0,1,565.72,137.12Z"/><path class="cls-4" d="M574.71,142.39a7.44,7.44,0,0,0,0-11.54l.63-.59a8,8,0,0,1,0,12.72Z"/><path class="cls-4" d="M593.38,140.78c0-1,.13-1.77.13-2.7,0-.55-.38-1.08-2-1.09v-.73c1.65,0,2-.55,2-1.09,0-.88-.13-1.74-.13-2.7,0-1.44.83-1.86,2.59-1.86h.85v.66h-.73c-1.43,0-1.74.36-1.74,1.27s.08,1.67.08,2.54a1.31,1.31,0,0,1-1.27,1.53v.06a1.31,1.31,0,0,1,1.27,1.53c0,1-.08,1.68-.08,2.54s.31,1.27,1.74,1.27h.73v.66H596C594.21,142.64,593.38,142.22,593.38,140.78Z"/><path class="cls-5" d="M397.31,150.5h1.16l1.57,3.87c.28.69.53,1.36.77,2h.06c.24-.64.46-1.32.74-2l1.57-3.87h1.11l-2.82,6.81h-1.29Z"/><path class="cls-5" d="M406.13,155.55c0-1.53,1.42-2.27,4.93-2.55a1.61,1.61,0,0,0-1.81-1.71,4.75,4.75,0,0,0-2.38.81l-.45-.78a5.87,5.87,0,0,1,3-1,2.52,2.52,0,0,1,2.76,2.8v4.17h-.94l-.1-.92h0a4.62,4.62,0,0,1-2.69,1.09A2.05,2.05,0,0,1,406.13,155.55Zm4.93,0v-1.79c-2.91.24-3.81.81-3.81,1.71s.71,1.09,1.5,1.09A3.68,3.68,0,0,0,411.06,155.55Z"/><path class="cls-5" d="M415.44,150.5h1l.1,1.61h0a3.62,3.62,0,0,1,3-1.78,2.87,2.87,0,0,1,1.34.28l-.27,1a3.16,3.16,0,0,0-1.26-.24,3.22,3.22,0,0,0-2.8,1.95v4h-1.15Z"/><path class="cls-7" d="M433.08,154.66v-3.22h-1.92v-.87l2-.07.15-2.19h1v2.19h3.35v.94h-3.35v3.24c0,1.22.41,1.86,1.72,1.86a4.51,4.51,0,0,0,1.64-.31l.25.84a5.93,5.93,0,0,1-2.13.41C433.73,157.48,433.08,156.34,433.08,154.66Z"/><path class="cls-7" d="M439.9,147.34H441v2.72l-.07,1.61h0a3.45,3.45,0,0,1,2.55-1.33c1.61,0,2.35,1,2.35,2.75v4.23h-1.15v-4.08c0-1.29-.45-1.91-1.57-1.91-.81,0-1.36.41-2.16,1.23v4.75H439.9Z"/><path class="cls-7" d="M451.43,151.44h-3.17v-.94h4.31v6.81h-1.15Zm-.48-3.26a.92.92,0,1,1,.92.9A.88.88,0,0,1,450.95,148.18Z"/><path class="cls-7" d="M456.39,156.41l.53-.76a4.83,4.83,0,0,0,3,.92c1.15,0,1.72-.49,1.72-1.06s-.28-.88-2.13-1.26-2.66-1-2.66-2,1-1.93,2.83-1.93a5.11,5.11,0,0,1,2.75.87l-.56.74a4,4,0,0,0-2.28-.71c-1.16,0-1.57.46-1.57,1s.59.84,2,1.13c2.27.49,2.82,1.06,2.82,2.1s-1.08,2-3,2A6,6,0,0,1,456.39,156.41Z"/><path class="cls-4" d="M473.39,150.75h6v.87h-6Zm0,3h6v.87h-6Z"/><path class="cls-4" d="M490.12,153.92a3.53,3.53,0,0,1,3.8-3.59,3.46,3.46,0,0,1,2.48,1l-.58.74a2.76,2.76,0,0,0-1.86-.78,2.51,2.51,0,0,0-2.65,2.63,2.47,2.47,0,0,0,2.62,2.61,3.24,3.24,0,0,0,2.1-.85l.52.74a4,4,0,0,1-2.7,1.06A3.43,3.43,0,0,1,490.12,153.92Z"/><path class="cls-4" d="M498.24,153.92a3.37,3.37,0,1,1,3.36,3.56A3.34,3.34,0,0,1,498.24,153.92Zm5.53,0c0-1.57-.87-2.63-2.17-2.63s-2.17,1.06-2.17,2.63.87,2.61,2.17,2.61S503.77,155.48,503.77,153.92Z"/><path class="cls-4" d="M506.61,150.5h.92l.1.9h0a1.69,1.69,0,0,1,1.55-1.06c.67,0,1.09.39,1.29,1.18.39-.73.81-1.18,1.6-1.18,1,0,1.51.74,1.51,2.1v4.88h-1.15v-4.79c0-.78-.22-1.19-.73-1.19s-.73.35-1.09,1.05v4.93h-1.06v-4.79c0-.78-.2-1.19-.7-1.19s-.79.35-1.12,1.05v4.93h-1.15Z"/><path class="cls-4" d="M518.62,151.44h-3.17v-.94h4.31v6.81h-1.15Zm-.48-3.26a.92.92,0,1,1,.92.9A.88.88,0,0,1,518.15,148.18Z"/><path class="cls-4" d="M523.72,153.92a3.53,3.53,0,0,1,3.8-3.59,3.46,3.46,0,0,1,2.48,1l-.58.74a2.76,2.76,0,0,0-1.86-.78,2.51,2.51,0,0,0-2.65,2.63,2.47,2.47,0,0,0,2.62,2.61,3.24,3.24,0,0,0,2.1-.85l.52.74a4,4,0,0,1-2.7,1.06A3.43,3.43,0,0,1,523.72,153.92Z"/><path class="cls-4" d="M533.76,159.57a2.54,2.54,0,0,0,1.76-2.34.85.85,0,0,1-.27,0,1,1,0,0,1-1.09-1.05,1,1,0,0,1,1.12-1.06c.83,0,1.26.7,1.26,1.79a3.45,3.45,0,0,1-2.46,3.36Zm.31-8.28a1.14,1.14,0,1,1,1.13,1.18A1.13,1.13,0,0,1,534.06,151.29Z"/><path class="cls-4" d="M364.39,175.58h.71c1.43,0,1.75-.36,1.75-1.27s-.08-1.58-.08-2.54a1.3,1.3,0,0,1,1.26-1.53v-.06a1.3,1.3,0,0,1-1.26-1.53c0-.87.08-1.74.08-2.54s-.32-1.27-1.75-1.27h-.71v-.66h.85c1.75,0,2.58.42,2.58,1.86,0,1-.13,1.82-.13,2.7,0,.55.38,1.08,2,1.09v.73c-1.65,0-2,.55-2,1.09,0,.94.13,1.68.13,2.7,0,1.44-.83,1.86-2.58,1.86h-.85Z"/></g></svg>