<svg xmlns="http://www.w3.org/2000/svg" viewBox="0 0 800 200"><defs><style>.cls-1{fill:#303030;}.cls-2{fill:#fff;}.cls-3{fill:#010101;}.cls-4{fill:#a99ea1;}.cls-5{fill:#824b9d;}.cls-6{fill:#27aae1;}.cls-7{fill:#ed4a48;}</style></defs><title>skullbytes_bannerskullbytesBanner</title><g id="Layer_1" data-name="Layer 1"><rect class="cls-1" width="800" height="200"/></g><g id="Layer_4" data-name="Layer 4"><ellipse class="cls-2" cx="108.93" cy="100.37" rx="91.86" ry="91.62"/></g><g id="Layer_3" data-name="Layer 3"><path class="cls-3" d="M108.39,3.1a98,98,0,1,0,98.22,98A98.08,98.08,0,0,0,108.39,3.1Zm-86.8,98a87,87,0,1,1,161.6,44.82c-3.37-4.4-8.06-8.23-8.92-12.63-14.25,4.76-6.18,16.36-12.73,20-5.82-21.45-21.09-28.36-32-29.09,1.29-10,10.18-21.45-2.32-40.72-5.85-7.33,13.3-31.63.8-51.71-2.59-4.16-5.88-7.44-10.48-9-19.32-6.47-8,41.25-14.7,51.49a3.24,3.24,0,0,1-2.39,1.35c-1.86.43-3.19.27-4.13-1.14-6.59-9.84,5.78-57.88-13.68-48.62-5,2.36-8.66,5.55-11,10.07-10.77,21.23,2.93,34.42.93,68.26-.32,26.23-8.75,46,5.66,78.46A87,87,0,0,1,21.6,101.06Z"/><path class="cls-2" d="M119.17,128.63c-2.72,3-2.31,7.13-2.85,9.28-.85,3.36-1.06,3.6-2.36,5.11-1.06.37-1.44-2.2-1.34-4.58s-.47-2.52-2-2.09a18.83,18.83,0,0,1-6.34.94c-.08-.92-.26-3.36-.33-5.66a9.92,9.92,0,0,0,3-1.63c1.22-.94,1.34-.73,1.34-2.64a10.68,10.68,0,0,0-1.42-5c-.22-.38-.67-.35-.71,0a7.19,7.19,0,0,1-2,3.63,13.4,13.4,0,0,0,.44-3.45c-.09-1.62-.21-3.27-.37-4.39-.85-5.89-2.53-17.32-2.23-19.49a39.15,39.15,0,0,0,.65-4.28c0-1.1-.46-4-.46-4-.42.55-.14,3.17-.1,3.35.29,1.22-.19,2-.74,4s1.76,17.1,1.78,19.75c0,1.22,0,3.17-.12,5.06,0,1.09-.09,2.16-.13,3.06a6.87,6.87,0,0,1-1.54-3.17c0-.41-.54-.46-.77,0a10.7,10.7,0,0,0-1.41,5,2.14,2.14,0,0,0,1.08,2.16,11.6,11.6,0,0,0,2.74,2c.09,2.34.2,4.85.24,5.78a15.66,15.66,0,0,1-5.43-.62c-3-1.09-2.79-.36-3,1.93s-.92,4.63-1.77,4.4a8,8,0,0,1-1.34-3.46c-.37-2.73.28-5.77-2-9.77-8.13-4.87-15.55-13.83-15.55-24.17a25,25,0,0,1,.47-4.64c0,.17-.08,3.06.76,3.15s1.05-2,2.39-2.3c-1.29,3.1-.34,6.46.53,8.32a23.1,23.1,0,0,0,1.11,3c3.17,7.08,9.19,11.28,13.45,9.38s5.14-9.19,2-16.28S85.64,95,81.38,96.9a5.48,5.48,0,0,0-2.18,1.8,5.85,5.85,0,0,0-3.3,3.55,5,5,0,0,1-.89-3.1,36.19,36.19,0,0,1,2.37-6.62c.61-1.28,5.25,0,6-1.15s-1-3.89-.09-4.85A27,27,0,0,1,121,83.87c.76.64-1.24,3.78-.55,4.5,1.1,1.16,5.41,0,6.31,1.3A34.08,34.08,0,0,1,131,97.91a6.14,6.14,0,0,0-3.88-3.32s.38-.69,0-.91a15.64,15.64,0,0,0-5.7.26c-3.83.55-7.94,4.73-10,10.66-2.59,7.31-1.13,14.51,3.26,16.07s10.06-3.11,12.65-10.42c1.93-5.43,1.61-10.79-.47-13.83,1.41-.52,3.45,1.18,4.51,2.41a22.05,22.05,0,0,1,.87,6.12C132.16,114.53,126.33,123.56,119.17,128.63Z"/><path class="cls-4" d="M270.43,117.33l1.66-2.3c3.89,3,8.42,5,15.7,5,7.06,0,10.66-3.17,10.66-6.84,0-3.1-1.22-5.62-12.17-7.85-8.79-1.73-13.83-4.61-13.83-9.65s4.25-9.22,13.54-9.22a24.16,24.16,0,0,1,13.25,4.25l-1.73,2.3a19.4,19.4,0,0,0-11.74-3.82c-7.56,0-10,3-10,6.26,0,3.67,3.6,5.47,11.38,7.13,12,2.52,14.62,5.26,14.62,10.44s-5.18,9.72-14.26,9.72A29.7,29.7,0,0,1,270.43,117.33Z"/><path class="cls-4" d="M316.58,70.17h3.24v38h.29l22.18-20.81h4L332.06,100.7l16.49,21.24h-3.67l-15-19.22-10.08,9.43v9.79h-3.24Z"/><path class="cls-4" d="M357.19,108.9V87.38h3.17v21.1c0,7.71,2.88,11.45,9.72,11.45,4.9,0,8.5-2.45,13.25-7.85V87.38h3.17v34.56h-2.66l-.36-6.7h-.29c-3.74,4.39-8.06,7.56-13.61,7.56C361.22,122.8,357.19,118.27,357.19,108.9Z"/><path class="cls-4" d="M413.63,111.5V72.9H400.75V70.17H416.8v41.76c0,5.47,2.66,8.06,7.56,8.06a16.29,16.29,0,0,0,7.13-1.8l1,2.45a17.62,17.62,0,0,1-8.57,2.16C417.38,122.8,413.63,119.35,413.63,111.5Z"/><path class="cls-4" d="M456.83,111.5V72.9H443.95V70.17H460v41.76c0,5.47,2.66,8.06,7.56,8.06a16.29,16.29,0,0,0,7.13-1.8l1,2.45a17.62,17.62,0,0,1-8.57,2.16C460.58,122.8,456.83,119.35,456.83,111.5Z"/><path class="cls-4" d="M491.25,118h-.14l-.36,3.89h-2.66V70.17h3.24v15l-.22,7.42h.14c3.53-3.6,8.5-6,13-6,9.79,0,14.69,6.91,14.69,17.64,0,11.74-7.56,18.65-16.06,18.65C499.31,122.8,494.71,120.93,491.25,118Zm24.27-13.9c0-8.5-3.31-14.83-11.81-14.83-3.6,0-8.06,2-12.38,6.34v19.23c4,3.67,8.5,5.11,11.38,5.11C510.11,120,515.51,113.51,515.51,104.15Z"/><path class="cls-4" d="M528.54,137l.86-2.81a11.42,11.42,0,0,0,3.38.58c5.33,0,8.71-3.89,10.8-9.14l1.22-3L528,87.38h3.31l10.08,21.75c1.37,2.88,3.1,6.63,4.75,9.72h.29c1.37-3.1,2.81-6.77,4-9.72l9-21.75h3.1l-16.27,38.88c-2,5.83-6.34,11.45-13.61,11.45A12.05,12.05,0,0,1,528.54,137Z"/><path class="cls-4" d="M583.12,109V90.11H572.68V87.66l10.51-.29.43-11.45h2.67V87.38h18.43v2.74H586.29v19.15c0,6.7,1.94,10.73,9.65,10.73a23.11,23.11,0,0,0,9.22-1.8l.86,2.45a26,26,0,0,1-10.51,2.16C586,122.8,583.12,117.26,583.12,109Z"/><path class="cls-4" d="M615.66,104.66c0-11.23,8.28-18.15,17.28-18.15,9.5,0,15.48,6,15.48,16a16.46,16.46,0,0,1-.14,2.66H618.9c.29,9.65,7.13,14.91,15.19,14.91a19.72,19.72,0,0,0,11.59-3.75l1.3,2.38a21.93,21.93,0,0,1-13.11,4.11C623.87,122.8,615.66,116,615.66,104.66Zm3.38-2.23h26.5C645,93.5,640.07,89.25,633,89.25,626.39,89.25,620,94,619,102.42Z"/><path class="cls-4" d="M659.22,117.33l1.66-2.3c3.89,3,8.42,5,15.7,5,7.06,0,10.66-3.17,10.66-6.84,0-3.1-1.22-5.62-12.17-7.85-8.79-1.73-13.83-4.61-13.83-9.65s4.25-9.22,13.54-9.22A24.16,24.16,0,0,1,688,90.76l-1.73,2.3a19.4,19.4,0,0,0-11.74-3.82c-7.56,0-10,3-10,6.26,0,3.67,3.6,5.47,11.38,7.13,12,2.52,14.62,5.26,14.62,10.44s-5.18,9.72-14.26,9.72A29.7,29.7,0,0,1,659.22,117.33Z"/><path class="cls-5" d="M398.42,152.32H397v-.62l1.39,0v-.41a1.77,1.77,0,0,1,2-2,3.59,3.59,0,0,1,1.4.28l-.19.62a2.49,2.49,0,0,0-1.13-.23,1.11,1.11,0,0,0-1.23,1.27v.44h2v.67h-2v4.19h-.81Z"/><path class="cls-5" d="M402.77,154.67v-3h.83v2.91c0,.92.31,1.36,1.12,1.36a1.94,1.94,0,0,0,1.51-.9v-3.37H407v4.86h-.67l-.07-.85h0a2.36,2.36,0,0,1-1.81,1C403.3,156.63,402.77,156,402.77,154.67Z"/><path class="cls-5" d="M408.93,151.65h.68l.07.83h0a2.49,2.49,0,0,1,1.83-1c1.15,0,1.68.68,1.68,2v3h-.82V153.6c0-.92-.32-1.36-1.12-1.36-.58,0-1,.29-1.54.88v3.39h-.82Z"/><path class="cls-5" d="M414.8,154.09a2.52,2.52,0,0,1,2.71-2.56,2.47,2.47,0,0,1,1.77.71l-.41.53a2,2,0,0,0-1.33-.56,1.79,1.79,0,0,0-1.89,1.88,1.77,1.77,0,0,0,1.87,1.86,2.31,2.31,0,0,0,1.5-.61l.37.53a2.89,2.89,0,0,1-1.93.76A2.45,2.45,0,0,1,414.8,154.09Z"/><path class="cls-5" d="M422.06,154.62v-2.3h-1.37v-.62l1.4,0,.11-1.56h.68v1.56h2.39v.67h-2.39v2.31c0,.87.29,1.33,1.23,1.33a3.21,3.21,0,0,0,1.17-.22l.18.6a4.23,4.23,0,0,1-1.52.29C422.52,156.63,422.06,155.82,422.06,154.62Z"/><path class="cls-5" d="M429.16,152.32H426.9v-.67H430v4.86h-.82Zm-.34-2.33a.66.66,0,1,1,.66.64A.63.63,0,0,1,428.82,150Z"/><path class="cls-5" d="M432.6,154.09a2.4,2.4,0,1,1,2.4,2.54A2.38,2.38,0,0,1,432.6,154.09Zm3.95,0c0-1.12-.62-1.88-1.55-1.88s-1.55.76-1.55,1.88S434.07,156,435,156,436.55,155.2,436.55,154.09Z"/><path class="cls-5" d="M438.93,151.65h.68l.07.83h0a2.49,2.49,0,0,1,1.83-1c1.15,0,1.68.68,1.68,2v3h-.82V153.6c0-.92-.32-1.36-1.12-1.36-.58,0-1,.29-1.54.88v3.39h-.82Z"/><path class="cls-6" d="M450.71,155.87l.38-.54a3.44,3.44,0,0,0,2.11.66c.82,0,1.23-.35,1.23-.76s-.2-.63-1.52-.9-1.9-.69-1.9-1.42.69-1.38,2-1.38a3.64,3.64,0,0,1,2,.62l-.4.53a2.87,2.87,0,0,0-1.63-.51c-.83,0-1.12.33-1.12.7s.42.6,1.41.81c1.62.35,2,.76,2,1.5s-.77,1.45-2.16,1.45A4.26,4.26,0,0,1,450.71,155.87Z"/><path class="cls-6" d="M457.06,149.39h.82v4.82h0l2.62-2.56h.94l-1.94,1.91,2.2,2.95h-.92L459,154.06l-1.15,1.13v1.32h-.82Z"/><path class="cls-6" d="M462.77,154.67v-3h.83v2.91c0,.92.31,1.36,1.12,1.36a1.94,1.94,0,0,0,1.51-.9v-3.37H467v4.86h-.67l-.07-.85h0a2.36,2.36,0,0,1-1.81,1C463.3,156.63,462.77,156,462.77,154.67Z"/><path class="cls-6" d="M470.47,154.88v-4.82h-1.66v-.67h2.48v5.55a.88.88,0,0,0,1,1,2.2,2.2,0,0,0,.91-.22l.21.61a3,3,0,0,1-1.3.29C471,156.63,470.47,156,470.47,154.88Z"/><path class="cls-6" d="M476.47,154.88v-4.82h-1.66v-.67h2.48v5.55a.88.88,0,0,0,1,1,2.2,2.2,0,0,0,.91-.22l.21.61a3,3,0,0,1-1.3.29C477,156.63,476.47,156,476.47,154.88Z"/><path class="cls-6" d="M481.69,156h0l-.07.54h-.66v-7.12h.82v1.94l0,.94h0a2.39,2.39,0,0,1,1.63-.74c1.31,0,2,1,2,2.47a2.35,2.35,0,0,1-2.2,2.63A2.44,2.44,0,0,1,481.69,156Zm2.86-2c0-1.07-.4-1.79-1.37-1.79a2.12,2.12,0,0,0-1.43.73v2.42a2.1,2.1,0,0,0,1.32.57C483.92,155.94,484.55,155.21,484.55,154Z"/><path class="cls-6" d="M486.67,158.5l.17-.65a1.55,1.55,0,0,0,.44.07,1.42,1.42,0,0,0,1.33-1l.15-.36-2.27-4.87h.83l1.19,2.69c.19.43.4.94.6,1.41h0l.52-1.41,1.06-2.69h.78l-2.14,5.26a2.18,2.18,0,0,1-2.06,1.69A2.05,2.05,0,0,1,486.67,158.5Z"/><path class="cls-6" d="M494.06,154.62v-2.3h-1.37v-.62l1.4,0,.11-1.56h.68v1.56h2.39v.67h-2.39v2.31c0,.87.29,1.33,1.23,1.33a3.21,3.21,0,0,0,1.17-.22l.18.6a4.23,4.23,0,0,1-1.52.29C494.52,156.63,494.06,155.82,494.06,154.62Z"/><path class="cls-6" d="M498.68,154.07a2.44,2.44,0,0,1,2.48-2.54,2.09,2.09,0,0,1,2.22,2.28,3.29,3.29,0,0,1,0,.5h-3.83A1.75,1.75,0,0,0,501.4,156a2.65,2.65,0,0,0,1.48-.46l.3.54a3.32,3.32,0,0,1-1.88.58A2.46,2.46,0,0,1,498.68,154.07Zm.85-.4h3.1a1.39,1.39,0,0,0-1.45-1.49A1.65,1.65,0,0,0,499.53,153.67Z"/><path class="cls-6" d="M504.71,155.87l.38-.54a3.44,3.44,0,0,0,2.11.66c.82,0,1.23-.35,1.23-.76s-.2-.63-1.52-.9-1.9-.69-1.9-1.42.69-1.38,2-1.38a3.64,3.64,0,0,1,2,.62l-.4.53a2.87,2.87,0,0,0-1.63-.51c-.83,0-1.12.33-1.12.7s.42.6,1.41.81c1.62.35,2,.76,2,1.5s-.77,1.45-2.16,1.45A4.26,4.26,0,0,1,504.71,155.87Z"/><path class="cls-4" d="M512.08,153.73a5.58,5.58,0,0,1,2.25-4.54l.45.42a5.31,5.31,0,0,0,0,8.24l-.45.42A5.57,5.57,0,0,1,512.08,153.73Z"/><path class="cls-4" d="M516.8,154.09a2.52,2.52,0,0,1,2.71-2.56,2.47,2.47,0,0,1,1.77.71l-.41.53a2,2,0,0,0-1.33-.56,1.79,1.79,0,0,0-1.89,1.88,1.77,1.77,0,0,0,1.87,1.86,2.31,2.31,0,0,0,1.5-.61l.37.53a2.89,2.89,0,0,1-1.93.76A2.45,2.45,0,0,1,516.8,154.09Z"/><path class="cls-4" d="M522.6,154.09a2.4,2.4,0,1,1,2.4,2.54A2.38,2.38,0,0,1,522.6,154.09Zm3.95,0c0-1.12-.62-1.88-1.55-1.88s-1.55.76-1.55,1.88S524.07,156,525,156,526.55,155.2,526.55,154.09Z"/><path class="cls-4" d="M528.58,151.65h.66l.07.64h0a1.21,1.21,0,0,1,1.11-.76c.48,0,.78.28.92.84.28-.52.58-.84,1.14-.84s1.08.53,1.08,1.5v3.48h-.82v-3.42c0-.56-.16-.85-.52-.85s-.52.25-.78.75v3.52h-.76v-3.42c0-.56-.14-.85-.5-.85s-.56.25-.8.75v3.52h-.82Z"/><path class="cls-4" d="M537.16,152.32H534.9v-.67H538v4.86h-.82Zm-.34-2.33a.66.66,0,1,1,.66.64A.63.63,0,0,1,536.82,150Z"/><path class="cls-4" d="M540.8,154.09a2.52,2.52,0,0,1,2.71-2.56,2.47,2.47,0,0,1,1.77.71l-.41.53a2,2,0,0,0-1.33-.56,1.79,1.79,0,0,0-1.89,1.88,1.77,1.77,0,0,0,1.87,1.86,2.31,2.31,0,0,0,1.5-.61l.37.53a2.89,2.89,0,0,1-1.93.76A2.45,2.45,0,0,1,540.8,154.09Z"/><path class="cls-4" d="M547.22,157.85a5.31,5.31,0,0,0,0-8.24l.45-.42a5.7,5.7,0,0,1,0,9.08Z"/><path class="cls-4" d="M560.56,156.7c0-.73.09-1.26.09-1.93,0-.39-.27-.77-1.45-.78v-.52c1.18,0,1.45-.39,1.45-.78,0-.63-.09-1.24-.09-1.93,0-1,.59-1.33,1.85-1.33H563v.47h-.52c-1,0-1.24.26-1.24.91s.06,1.19.06,1.81a.93.93,0,0,1-.91,1.09v0a.94.94,0,0,1,.91,1.09c0,.68-.06,1.2-.06,1.81s.22.91,1.24.91H563V158h-.61C561.15,158,560.56,157.73,560.56,156.7Z"/><path class="cls-5" d="M420.51,163.65h.83l1.12,2.76c.2.49.38,1,.55,1.43h0c.17-.46.33-.94.53-1.43l1.12-2.76h.79l-2,4.86h-.92Z"/><path class="cls-5" d="M426.81,167.25c0-1.09,1-1.62,3.52-1.82a1.15,1.15,0,0,0-1.29-1.22,3.38,3.38,0,0,0-1.7.58l-.32-.56a4.18,4.18,0,0,1,2.16-.7,1.8,1.8,0,0,1,2,2v3h-.67l-.07-.66h0a3.3,3.3,0,0,1-1.92.78A1.46,1.46,0,0,1,426.81,167.25Zm3.52,0V166c-2.08.17-2.72.58-2.72,1.22s.51.78,1.07.78A2.62,2.62,0,0,0,430.33,167.25Z"/><path class="cls-5" d="M433.46,163.65h.68l.07,1.15h0a2.58,2.58,0,0,1,2.17-1.27,2,2,0,0,1,1,.2l-.19.71a2.25,2.25,0,0,0-.9-.17,2.3,2.3,0,0,0-2,1.39v2.85h-.82Z"/><path class="cls-7" d="M446.06,166.62v-2.3h-1.37v-.62l1.4,0,.11-1.56h.68v1.56h2.39v.67h-2.39v2.31c0,.87.29,1.33,1.23,1.33a3.21,3.21,0,0,0,1.17-.22l.18.6a4.23,4.23,0,0,1-1.52.29C446.52,168.63,446.06,167.82,446.06,166.62Z"/><path class="cls-7" d="M450.93,161.39h.82v1.94l0,1.15h0a2.45,2.45,0,0,1,1.82-1c1.15,0,1.68.68,1.68,2v3h-.82V165.6c0-.92-.32-1.36-1.12-1.36-.58,0-1,.29-1.54.88v3.39h-.82Z"/><path class="cls-7" d="M459.16,164.32H456.9v-.67H460v4.86h-.82Zm-.34-2.33a.66.66,0,1,1,.66.64A.63.63,0,0,1,458.82,162Z"/><path class="cls-7" d="M462.71,167.87l.38-.54a3.44,3.44,0,0,0,2.11.66c.82,0,1.23-.35,1.23-.76s-.2-.63-1.52-.9-1.9-.69-1.9-1.42.69-1.38,2-1.38a3.64,3.64,0,0,1,2,.62l-.4.53a2.87,2.87,0,0,0-1.63-.51c-.83,0-1.12.33-1.12.7s.42.6,1.41.81c1.62.35,2,.76,2,1.5s-.77,1.45-2.16,1.45A4.26,4.26,0,0,1,462.71,167.87Z"/><path class="cls-4" d="M474.85,163.83h4.3v.62h-4.3Zm0,2.14h4.3v.62h-4.3Z"/><path class="cls-4" d="M486.8,166.09a2.52,2.52,0,0,1,2.71-2.56,2.47,2.47,0,0,1,1.77.71l-.41.53a2,2,0,0,0-1.33-.56,1.79,1.79,0,0,0-1.89,1.88,1.77,1.77,0,0,0,1.87,1.86,2.31,2.31,0,0,0,1.5-.61l.37.53a2.89,2.89,0,0,1-1.93.76A2.45,2.45,0,0,1,486.8,166.09Z"/><path class="cls-4" d="M492.6,166.09a2.4,2.4,0,1,1,2.4,2.54A2.38,2.38,0,0,1,492.6,166.09Zm3.95,0c0-1.12-.62-1.88-1.55-1.88s-1.55.76-1.55,1.88S494.07,168,495,168,496.55,167.2,496.55,166.09Z"/><path class="cls-4" d="M498.58,163.65h.66l.07.64h0a1.21,1.21,0,0,1,1.11-.76c.48,0,.78.28.92.84.28-.52.58-.84,1.14-.84s1.08.53,1.08,1.5v3.48h-.82v-3.42c0-.56-.16-.85-.52-.85s-.52.25-.78.75v3.52h-.76v-3.42c0-.56-.14-.85-.5-.85s-.56.25-.8.75v3.52h-.82Z"/><path class="cls-4" d="M507.16,164.32H504.9v-.67H508v4.86h-.82Zm-.34-2.33a.66.66,0,1,1,.66.64A.63.63,0,0,1,506.82,162Z"/><path class="cls-4" d="M510.8,166.09a2.52,2.52,0,0,1,2.71-2.56,2.47,2.47,0,0,1,1.77.71l-.41.53a2,2,0,0,0-1.33-.56,1.79,1.79,0,0,0-1.89,1.88,1.77,1.77,0,0,0,1.87,1.86,2.31,2.31,0,0,0,1.5-.61l.37.53a2.89,2.89,0,0,1-1.93.76A2.45,2.45,0,0,1,510.8,166.09Z"/><path class="cls-4" d="M518,170.12a1.81,1.81,0,0,0,1.26-1.67.63.63,0,0,1-.19,0,.72.72,0,0,1-.78-.75.74.74,0,0,1,.8-.76c.59,0,.9.5.9,1.28a2.46,2.46,0,0,1-1.76,2.4Zm.22-5.91a.81.81,0,1,1,.81.84A.8.8,0,0,1,518.19,164.21Z"/><path class="cls-4" d="M397,181.56h.51c1,0,1.25-.26,1.25-.91s-.06-1.13-.06-1.81a.93.93,0,0,1,.9-1.09v0a.93.93,0,0,1-.9-1.09c0-.62.06-1.24.06-1.81s-.23-.91-1.25-.91H397v-.47h.61c1.25,0,1.84.3,1.84,1.33,0,.69-.09,1.3-.09,1.93,0,.39.27.77,1.45.78V178c-1.18,0-1.45.39-1.45.78,0,.67.09,1.2.09,1.93,0,1-.59,1.33-1.84,1.33H397Z"/></g></svg>